<svg width="3000" height="3000" viewBox="0 0 3000 3000" fill="none" xmlns="http://www.w3.org/2000/svg">
  <g clip-path="url(#clip0_1029_6)">
    <rect width="3000" height="3000" fill="black" />
    <path d="M2105.2 2493.8C2159.8 2493.8 2205.3 2512 2241.7 2548.4C2280.7 2584.8 2300.2 2630.3 2300.2 2684.9C2300.2 2739.5 2280.7 2785 2241.7 2821.4C2205.3 2857.8 2159.8 2876 2105.2 2876H794.8C737.6 2876 689.5 2857.8 650.5 2821.4C614.1 2782.4 595.9 2734.3 595.9 2677.1V344.9C595.9 287.7 615.4 240.9 654.4 204.5C693.4 165.5 744.1 146 806.5 146C858.5 146 904 165.5 943 204.5C984.6 240.9 1005.4 287.7 1005.4 344.9V2560.1L923.5 2493.8H2105.2Z" fill="white" />
    <path d="M1812 158.5C1834 158.5 1851.5 166 1864.5 181C1877.5 195 1884 213 1884 235V803.5C1884 883.5 1866.5 955 1831.5 1018C1796.5 1081 1748.5 1130.5 1687.5 1166.5C1626.5 1201.5 1556 1219 1476 1219C1397 1219 1326.5 1201.5 1264.5 1166.5C1203.5 1130.5 1155 1081 1119 1018C1084 955 1066.5 883.5 1066.5 803.5V235C1066.5 213 1074 195 1089 181C1104 166 1123.5 158.5 1147.5 158.5C1166.5 158.5 1183.5 166 1198.5 181C1214.5 195 1222.5 213 1222.5 235V803.5C1222.5 856.5 1234 903 1257 943C1281 982 1312.5 1013 1351.5 1036C1390.5 1058 1432 1069 1476 1069C1524 1069 1568 1058 1608 1036C1648 1013 1680 982 1704 943C1729 903 1741.5 856.5 1741.5 803.5V235C1741.5 213 1747.5 195 1759.5 181C1772.5 166 1790 158.5 1812 158.5Z" fill="white" />
    <path d="M2173.6 1283C2198.53 1295.47 2212.7 1314.73 2216.1 1340.8C2220.63 1366.87 2214.4 1390.67 2197.4 1412.2C2184.93 1429.2 2168.5 1438.83 2148.1 1441.1C2128.83 1443.37 2109.57 1439.4 2090.3 1429.2C2057.43 1412.2 2022.87 1398.6 1986.6 1388.4C1950.33 1378.2 1911.8 1373.1 1871 1373.1C1806.4 1373.1 1748.03 1383.87 1695.9 1405.4C1644.9 1425.8 1600.7 1455.83 1563.3 1495.5C1525.9 1534.03 1497 1579.93 1476.6 1633.2C1457.33 1686.47 1447.7 1745.4 1447.7 1810C1447.7 1881.4 1458.47 1944.87 1480 2000.4C1501.53 2054.8 1531 2101.27 1568.4 2139.8C1606.93 2177.2 1651.7 2205.53 1702.7 2224.8C1754.83 2242.93 1810.93 2252 1871 2252C1909.53 2252 1946.93 2247.47 1983.2 2238.4C2020.6 2229.33 2055.73 2215.73 2088.6 2197.6C2109 2187.4 2128.83 2184 2148.1 2187.4C2168.5 2189.67 2184.93 2199.3 2197.4 2216.3C2216.67 2240.1 2223.47 2264.47 2217.8 2289.4C2213.27 2313.2 2199.1 2331.33 2175.3 2343.8C2146.97 2359.67 2115.8 2373.27 2081.8 2384.6C2047.8 2395.93 2013.23 2405 1978.1 2411.8C1942.97 2418.6 1907.27 2422 1871 2422C1789.4 2422 1712.33 2408.4 1639.8 2381.2C1567.27 2354 1502.67 2314.33 1446 2262.2C1389.33 2210.07 1344.57 2146.03 1311.7 2070.1C1279.97 1994.17 1264.1 1907.47 1264.1 1810C1264.1 1722.73 1278.83 1642.27 1308.3 1568.6C1338.9 1493.8 1381.4 1429.77 1435.8 1376.5C1491.33 1322.1 1555.93 1280.17 1629.6 1250.7C1703.27 1220.1 1783.73 1204.8 1871 1204.8C1925.4 1204.8 1978.1 1211.6 2029.1 1225.2C2081.23 1238.8 2129.4 1258.07 2173.6 1283Z" fill="white" />
  </g>
  <defs>
    <clipPath id="clip0_1029_6">
      <rect width="3000" height="3000" fill="white" />
    </clipPath>
  </defs>
</svg>
