<svg width="275" height="300" viewBox="0 0 275 300" fill="none" xmlns="http://www.w3.org/2000/svg">
    <g clip-path="url(#clip0_1069_2)">
      <rect width="275" height="300" fill="#212121" />
      <ellipse id="Luz projetada" cx="160.908" cy="273.88" rx="85.9981" ry="13.6338" fill="#FAFAFA">
        <animate
          attributeName="opacity"
          from="0"
          to="1"
          dur="1s"
          repeatCount="1"
        />
      </ellipse>
      <ellipse id="Lampada" cx="65.0166" cy="22.8451" rx="32.1377" ry="11.613" transform="rotate(-19.5275 65.0166 22.8451)" fill="#FAFAFA">
        <animate
          attributeName="opacity"
          from="0"
          to="1"
          dur="1s"
          repeatCount="1"
        />
      </ellipse>
      <path id="Raio de luz" d="M34.7635 33.7145C34.7635 33.7145 35.6526 35.5858 38.2025 36.8607C40.3 37.9095 46.5131 38.319 51.8381 37.9096C59.0743 37.3532 62.8132 35.0527 69.667 32.6658C72.9717 31.5149 74.893 31.0141 78.0571 29.5195C81.0428 28.1092 82.6611 27.1713 85.3984 25.3245C88.6325 23.1426 91.1601 22.3831 93.1574 19.0318C94.0608 17.5159 94.6005 16.5857 94.8372 14.8369C95.0579 13.2061 94.4378 10.6418 94.4378 10.6418C94.4378 10.6418 249.408 272.213 246.907 273.88C244.406 275.546 243.243 271.031 240.614 269.685C237.156 267.914 234.924 267.562 231.176 266.539C223.185 264.356 218.421 264.411 210.2 263.392C190.247 260.92 186.08 260.246 158.811 260.246C131.543 260.246 113.714 262.595 112.665 262.595C111.616 262.595 90.6422 266.014 90.6422 266.014C90.6422 266.014 81.2015 268.636 79.1045 269.685C77.0074 270.734 74.9119 274.929 74.9119 274.929L34.7635 33.7145Z" fill="url(#paint0_linear_1069_2)">
        <animate
          attributeName="opacity"
          from="0"
          to="1"
          dur="1s"
          repeatCount="1"
        />
      </path>
      <g id="404" filter="url(#filter0_d_1069_2)">
        <path d="M119.027 243.816H123.758V249.654H119.027V260.223H111.53V214.934H119.027V243.816ZM91.9269 249.654V243.816L109.01 218.621V227.408L98.5021 243.816H109.01V249.654H91.9269ZM149.813 220.28C148.298 220.28 146.925 220.567 145.696 221.14C144.467 221.714 143.423 222.697 142.562 224.09C141.702 225.442 141.026 227.204 140.534 229.375C140.084 231.546 139.838 234.209 139.797 237.363C139.838 239.862 140.002 242.075 140.289 244C140.575 245.926 141.005 247.564 141.579 248.916L138.199 256.106C136.315 254.18 134.86 251.681 133.836 248.609C132.812 245.495 132.3 241.747 132.3 237.363C132.3 233.554 132.689 230.215 133.468 227.347C134.287 224.438 135.434 222.021 136.909 220.096C138.425 218.17 140.248 216.716 142.378 215.733C144.549 214.709 146.966 214.197 149.629 214.197C152.456 214.197 154.934 214.729 157.065 215.794L154.361 221.571C153.009 220.71 151.493 220.28 149.813 220.28ZM160.875 218.437C162.882 220.321 164.398 222.841 165.422 225.995C166.487 229.15 167.02 232.939 167.02 237.363C167.02 241.173 166.61 244.533 165.791 247.441C165.012 250.35 163.865 252.767 162.349 254.693C160.834 256.618 159.011 258.072 156.88 259.056C154.75 260.039 152.333 260.53 149.629 260.53C146.72 260.53 144.139 259.957 141.886 258.81L144.652 252.972C145.922 253.996 147.519 254.508 149.445 254.508C150.96 254.508 152.333 254.221 153.562 253.648C154.832 253.033 155.897 252.05 156.757 250.698C157.618 249.346 158.273 247.585 158.724 245.413C159.215 243.201 159.482 240.518 159.523 237.363C159.482 234.783 159.297 232.529 158.97 230.604C158.642 228.678 158.171 227.04 157.556 225.688C157.515 225.647 157.495 225.606 157.495 225.565L160.875 218.437ZM200.94 243.816H205.672V249.654H200.94V260.223H193.443V214.934H200.94V243.816ZM173.841 249.654V243.816L190.924 218.621V227.408L180.416 243.816H190.924V249.654H173.841Z" fill="white">
          <animate
            attributeName="opacity"
            from="0"
            to="1"
            dur="1s"
            repeatCount="1"
          />
        </path>
      </g>
    </g>
    <defs>
      <filter id="filter0_d_1069_2" x="79.3426" y="203.709" width="138.914" height="71.504" filterUnits="userSpaceOnUse" color-interpolation-filters="sRGB">
      <feFlood flood-opacity="0" result="BackgroundImageFix"/>
      <feColorMatrix in="SourceAlpha" type="matrix" values="0 0 0 0 0 0 0 0 0 0 0 0 0 0 0 0 0 0 127 0" result="hardAlpha"/>
      <feOffset dy="2.09751"/>
      <feGaussianBlur stdDeviation="6.29254"/>
      <feComposite in2="hardAlpha" operator="out"/>
      <feColorMatrix type="matrix" values="0 0 0 0 0.129412 0 0 0 0 0.129412 0 0 0 0 0.129412 0 0 0 0.6 0"/>
      <feBlend mode="normal" in2="BackgroundImageFix" result="effect1_dropShadow_1069_2"/>
      <feBlend mode="normal" in="SourceGraphic" in2="effect1_dropShadow_1069_2" result="shape"/>
    </filter>
    <linearGradient id="paint0_linear_1069_2" x1="104.508" y1="8.58545" x2="164.627" y2="291.372" gradientUnits="userSpaceOnUse">
      <stop stop-color="#FAFAFA" stop-opacity="0.75"/>
      <stop offset="0.205" stop-color="#646464" stop-opacity="0.5"/>
      <stop offset="0.6" stop-color="#777777"/>
      <stop offset="1" stop-color="#FAFAFA"/>
    </linearGradient>
    <clipPath id="clip0_1069_2">
      <rect width="275" height="300" fill="white" />
    </clipPath>
  </defs>
</svg>
